<svg width="37" height="37" viewBox="0 0 37 37" fill="none" xmlns="http://www.w3.org/2000/svg">
<g id="border_color">
<mask id="mask0_6_42" style="mask-type:alpha" maskUnits="userSpaceOnUse" x="0" y="0" width="37" height="37">
<rect id="Bounding box" width="37" height="37" fill="#D9D9D9"/>
</mask>
<g mask="url(#mask0_6_42)">
<path id="border_color_2" d="M3.31464 36.6724V30.8911H33.6855V36.6724H3.31464ZM9.13443 25.1099H11.1579L23.8188 12.4875L21.7568 10.4255L9.13443 23.1057V25.1099ZM6.2438 28.0005V21.8724L23.8188 4.31667C24.1014 4.03403 24.4146 3.82205 24.7581 3.68073C25.1017 3.53941 25.4631 3.46875 25.8422 3.46875C26.2221 3.46875 26.59 3.54262 26.9461 3.69036C27.3022 3.83811 27.6266 4.05736 27.9193 4.34812L29.9318 6.38354C30.2245 6.65007 30.4351 6.96138 30.5636 7.31748C30.6921 7.67356 30.7563 8.04151 30.7563 8.42135C30.7563 8.79392 30.6921 9.15043 30.5636 9.49089C30.4351 9.83134 30.2231 10.1493 29.9277 10.4448L12.3719 28.0005H6.2438Z" fill="#DFBEF7"/>
</g>
</g>
</svg>
